<svg width="59" height="33" viewBox="0 0 59 33" fill="none" xmlns="http://www.w3.org/2000/svg">
<path d="M29.3771 32.5009C30.5289 32.4344 31.6219 31.9773 32.4709 31.2071L56.4709 9.52143C56.9748 9.08986 57.386 8.56316 57.6801 7.97247C57.9743 7.38177 58.1455 6.73903 58.1836 6.08208C58.2217 5.42513 58.126 4.76732 57.9021 4.14741C57.6783 3.5275 57.3307 2.95805 56.88 2.47265C56.4293 1.98724 55.8846 1.59571 55.2779 1.32113C54.6712 1.04654 54.0149 0.894457 53.3477 0.873872C52.6805 0.853287 52.0158 0.964634 51.3929 1.20128C50.77 1.43793 50.2015 1.79512 49.7209 2.25179L29.0959 20.888L8.47088 2.25179C7.99026 1.79512 7.42174 1.43793 6.79885 1.20128C6.17596 0.964634 5.5113 0.853287 4.84407 0.873872C4.17684 0.894457 3.52054 1.04654 2.91388 1.32113C2.30722 1.59571 1.76248 1.98724 1.31177 2.47265C0.861061 2.95805 0.513515 3.5275 0.289626 4.14741C0.0657362 4.76732 -0.0299657 5.42513 0.00816398 6.08208C0.0462937 6.73903 0.217483 7.38177 0.511637 7.97247C0.805791 8.56316 1.21695 9.08986 1.72088 9.52143L25.7209 31.2071C26.2119 31.6523 26.7884 31.9961 27.4163 32.2183C28.0442 32.4405 28.7109 32.5366 29.3771 32.5009Z" fill="black" fill-opacity="0.87"/>
</svg>
